<svg id="Layer_1" data-name="Layer 1" xmlns="http://www.w3.org/2000/svg" viewBox="0 0 248.18046 171.05415"><defs><style>.cls-1{fill:#231f20;}</style></defs><title>ride</title><path class="cls-1" d="M193.59,429.82c0-3.21-1.69-2.71-1.85-4.69a3.54,3.54,0,0,1,2.34-3.71c1.38-.29,2.63.92,1.58,4.6C195.07,428.07,194.67,430.07,193.59,429.82Z" transform="translate(-189.65916 -302.46587)"/><path class="cls-1" d="M257.23,319.35c12.84-14,39.17-11.38,52.27-5.27,9.23,4.31,10.34,6.57,14.56,15.3,3.18,6.59,2.46,16.45,5.18,25.3,2.9,9.44,24.29,3.78,38.86-9.76,2.09-1.93,4.91-1.44,8.57-1.41-4.28,35.19-52.14,37.31-61,37.63-25.09.88-19.28,7.81-25.87,20.64-3.62,7-8.53,5.78-8.33,12.33a9.32,9.32,0,0,0,1,3.54,67.461,67.461,0,0,1,5.42,17.12c.65,3.78,1.41,6.47,1.52,7.3,3.15,11.66,4.75,22.45,9,27.24,4,4.5-10,3.44-21.79,3.12a4.34,4.34,0,0,1-4-2.93c-.94-2.75-.89-6.07-3.06-8.08,2-3.11,4.08-3.05,1.93-7.52a44.71983,44.71983,0,0,1-4.71-15.52c-.14-1.75-.88-6.38-1.1-8.39s-.42-3.25-.63-5.07c-1.19.15,10-32.08,7.22-52.4-1.41-10.27-39.93,1.54-31.27-6.48C256.3,351.93,249.64,328.19,257.23,319.35Z" transform="translate(-189.65916 -302.46587)"/><path class="cls-1" d="M220.44,412.69c4.28,3.29,4.75,1.15,4.69,12.48a104.23148,104.23148,0,0,0,2.41,16.32,1.37746,1.37746,0,0,0,.09.39c3.11,11.58,4.72,22.28,9,27,4,4.5-10,3.44-21.8,3.12a4.32,4.32,0,0,1-4-2.92c-.68-2-.84-4.27-1.7-6.14a4.33,4.33,0,0,1,.67-4.48c.93-1.15,1.25-2.16-.1-5A44.43983,44.43983,0,0,1,205,438c-.14-1.75-.89-6.38-1.1-8.38s-.42-3.25-.63-5.08C202.05,424.68,211.45,405.78,220.44,412.69Z" transform="translate(-189.65916 -302.46587)"/><path class="cls-1" d="M226.91,423.91v45H205.7a2.56,2.56,0,0,1-2.56-2.55v-13.5a145.94009,145.94009,0,0,0-11.65-57.14h0a30.66,30.66,0,0,1,28.72-39.26h.16a127.00012,127.00012,0,0,0,34.72-5.17c24-6.83,35.19,20.85,35.19,36S282.06,410.6,273.94,414c5.57,2.05,14,7.85,14,28v5.55c0,7.56.07,16.18,1.61,21.44H269a3.47,3.47,0,0,1-3.39-2.6c-1.26-5.06-1.52-12.61-1.52-22.65V442c0-12.3-3.11-18.12-21.23-18.12Zm0-19.36h20.38c13.32,0,18.45-5.06,18.45-14.46,0-9.15-6-14.27-17.87-14.27h-21Z" transform="translate(-189.65916 -302.46587)"/><path class="cls-1" d="M195.65,425h-2.84c.11-16-5.85-30.3-1.65-44.71l2.75.65C190,395,195.77,409.11,195.65,425Z" transform="translate(-189.65916 -302.46587)"/><path class="cls-1" d="M237.32,322.75c16.22-25,54-20.81,59.78-18.49,10.35,4.16,6.48,32.84-4.8,53.14s-28,8.38-42-2.07S234.78,326.67,237.32,322.75Z" transform="translate(-189.65916 -302.46587)"/><path class="cls-1" d="M314.2,404.63h13.31v11.86H314.2Zm0,19.71h13.31v48H314.2Z" transform="translate(-189.65916 -302.46587)"/><path class="cls-1" d="M383.54,404.63v54.55c0,4.37,0,8.81.09,13.2H370.84c-.26-1.44-.52-3.92-.6-5-2.32,3.79-6.46,6.14-13.63,6.14-12.15,0-19.88-9.76-19.88-24.75,0-14.78,8.21-25.53,21.82-25.53,6.91,0,10.62,2.44,11.69,4.6V404.63ZM350.39,448.4c0,9.37,3.65,14.44,10.16,14.44,9.15,0,10.2-7.63,10.2-14.53,0-8.22-1.16-14.43-9.85-14.43C353.91,433.88,350.39,439.33,350.39,448.4Z" transform="translate(-189.65916 -302.46587)"/><path class="cls-1" d="M405.91,451.2c0,6,3,11.89,9.65,11.89,5.54,0,7.12-2.23,8.38-5.13h13.31c-1.7,5.88-6.95,15.54-22,15.54-15.83,0-22.69-11.84-22.69-24.44,0-15.07,7.73-25.84,23.16-25.84,16.5,0,22.11,11.94,22.11,23.93a30.1909,30.1909,0,0,1-.17,4.05Zm18.56-8.2c-.09-5.59-2.33-10.3-8.81-10.3s-8.94,4.4-9.47,10.3Z" transform="translate(-189.65916 -302.46587)"/></svg>